<?xml version="1.0" standalone="no"?>
<!DOCTYPE svg PUBLIC "-//W3C//DTD SVG 20010904//EN"
 "http://www.w3.org/TR/2001/REC-SVG-20010904/DTD/svg10.dtd">
<svg version="1.0" xmlns="http://www.w3.org/2000/svg"
 width="700.000000pt" height="700.000000pt" viewBox="0 0 700.000000 700.000000"
 preserveAspectRatio="xMidYMid meet">
<metadata>
Created by potrace 1.11, written by Peter Selinger 2001-2013
</metadata>
<g transform="translate(0.000000,700.000000) scale(0.100000,-0.100000)"
fill="#000000" stroke="none">
<path d="M1359 6762 c-40 -12 -39 93 -39 -3262 0 -2739 2 -3229 14 -3245 12
-17 28 -19 132 -20 141 -1 151 1 161 29 7 21 12 6422 5 6463 -2 12 -14 26 -26
30 -22 8 -224 12 -247 5z"/>
<path d="M1875 6745 c-20 -20 -20 -24 -20 -3248 l0 -3229 21 -17 c19 -15 151
-17 1898 -16 1847 0 1878 0 1892 19 21 30 21 6462 0 6492 -13 18 -28 19 -233
19 l-218 0 -5 -526 -5 -527 -159 105 c-137 90 -162 103 -180 94 -12 -6 -79
-49 -151 -96 -71 -47 -137 -89 -147 -95 -15 -9 -16 28 -16 488 -1 273 -1 511
-1 527 l-1 31 -1327 0 c-1322 0 -1328 0 -1348 -21z"/>
</g>
</svg>
