<?xml version="1.0" encoding="UTF-8"?>
<!DOCTYPE svg PUBLIC "-//W3C//DTD SVG 1.1//EN" "http://www.w3.org/Graphics/SVG/1.1/DTD/svg11.dtd">
<svg version="1.1" xmlns="http://www.w3.org/2000/svg" xmlns:xlink="http://www.w3.org/1999/xlink" x="0" y="0" width="1024" height="1024" viewBox="0, 0, 1024, 1024">
  <g id="Background"/>
  <g id="Layer_3">
    <path d="M200.827,34.333 L231.624,34.333 C235.876,34.333 239.323,37.806 239.323,42.09 L239.323,981.91 C239.323,986.194 235.876,989.667 231.624,989.667 L200.827,989.667 C196.575,989.667 193.128,986.194 193.128,981.91 L193.128,42.09 C193.128,37.806 196.575,34.333 200.827,34.333 z" fill="#000000" opacity="0.1"/>
    <path d="M823.173,34.333 C827.425,34.333 830.872,37.78 830.872,42.033 L830.872,981.967 C830.872,986.22 827.425,989.667 823.173,989.667 L279.101,989.667 C274.849,989.667 271.402,986.22 271.402,981.968 L271.402,42.032 C271.402,37.78 274.849,34.333 279.101,34.333 L823.173,34.333 z M762.222,34.333 L665.983,34.333 L665.983,188.849 L692.706,171.42 L714.102,157.466 L735.498,171.42 L762.221,188.849 L762.221,154.632 L762.222,154.632 L762.222,34.333 z" fill="#000000" opacity="0.1"/>
  </g>
</svg>
